<?xml version="1.0" encoding="utf-8"?>
<!-- Generator: Adobe Illustrator 26.4.1, SVG Export Plug-In . SVG Version: 6.00 Build 0)  -->
<svg version="1.1" id="Capa_1" xmlns="http://www.w3.org/2000/svg" xmlns:xlink="http://www.w3.org/1999/xlink" x="0px" y="0px"
	 viewBox="0 0 83 83" style="enable-background:new 0 0 83 83;" xml:space="preserve">
<style type="text/css">
	.st0{fill:#F3DA5B;stroke:#F3DA5B;stroke-width:5;stroke-miterlimit:10;}
	.st1{fill:#F3DA5B;stroke:#F3DA5B;stroke-width:2;stroke-miterlimit:10;}
</style>
<g>
	<path class="st0" d="M41.5,2.9C20.2,2.9,2.9,20.2,2.9,41.5c0,21.3,17.3,38.6,38.6,38.6s38.6-17.3,38.6-38.6
		C80.1,20.2,62.8,2.9,41.5,2.9z M41.5,77C21.9,77,6,61.1,6,41.5S21.9,6,41.5,6S77,21.9,77,41.5S61.1,77,41.5,77z"/>
	<path class="st1" d="M53.5,45.3C53.5,45.3,53.5,45.3,53.5,45.3l-9,0.1V22c0-1.7-1.3-3-3-3s-3,1.3-3,3v26.5c0,0,0,0,0,0c0,0,0,0,0,0
		c0,0.1,0,0.2,0,0.4c0,0.1,0,0.1,0,0.2c0,0.1,0.1,0.2,0.1,0.4c0,0.1,0,0.1,0.1,0.2c0.1,0.1,0.1,0.2,0.2,0.3c0,0.1,0.1,0.1,0.1,0.2
		c0.1,0.1,0.2,0.2,0.3,0.3c0,0,0.1,0.1,0.1,0.1c0.1,0.1,0.2,0.2,0.3,0.3c0,0,0.1,0.1,0.1,0.1c0.1,0.1,0.2,0.1,0.4,0.2
		c0,0,0.1,0.1,0.1,0.1c0.2,0.1,0.3,0.1,0.5,0.1c0,0,0.1,0,0.1,0c0.2,0,0.4,0.1,0.6,0.1c0,0,0,0,0,0l12-0.2c1.7,0,3-1.4,3-3
		C56.5,46.6,55.1,45.3,53.5,45.3z"/>
</g>
</svg>
